<?xml version="1.0" standalone="no"?>
<!DOCTYPE svg PUBLIC "-//W3C//DTD SVG 20010904//EN"
 "http://www.w3.org/TR/2001/REC-SVG-20010904/DTD/svg10.dtd">
<svg version="1.0" xmlns="http://www.w3.org/2000/svg"
 width="448.000000pt" height="429.000000pt" viewBox="0 0 448.000000 429.000000"
 preserveAspectRatio="xMidYMid meet">

<g transform="translate(0.000000,429.000000) scale(0.100000,-0.100000)"
fill="#000000" stroke="none">
<path d="M0 2145 l0 -2145 2240 0 2240 0 0 2145 0 2145 -2240 0 -2240 0 0
-2145z m3112 1539 c235 -60 373 -208 414 -446 20 -117 14 -664 -8 -738 -21
-68 -68 -161 -99 -194 -54 -58 -56 -70 -15 -113 53 -57 112 -178 126 -262 19
-113 8 -687 -14 -765 -45 -153 -141 -270 -274 -333 -42 -20 -95 -41 -117 -47
-64 -16 -2056 -20 -2067 -4 -4 7 -8 390 -8 850 0 641 3 839 12 844 7 4 446 8
976 9 835 1 964 3 972 15 6 9 10 162 10 353 l0 337 -969 0 c-533 0 -976 3
-985 6 -14 5 -16 36 -16 243 0 169 3 240 12 249 9 9 254 12 999 12 873 0 995
-2 1051 -16z"/>
<path d="M1562 1978 c-9 -9 -12 -99 -12 -349 0 -288 2 -338 15 -349 12 -10
163 -11 728 -5 391 4 715 10 720 14 4 4 6 162 5 352 l-3 344 -720 3 c-552 2
-724 -1 -733 -10z"/>
</g>
</svg>
